<svg viewBox="0 0 367.67 139.33" xmlns="http://www.w3.org/2000/svg" >
  <defs>
    <linearGradient id="linear-gradient" x1="25.17" y1="14.1" x2="63.17" y2="40.1" gradientUnits="userSpaceOnUse">
      <stop offset="0" stop-color="#80a5b7"/>
      <stop offset="1" stop-color="#5c677c"/>
    </linearGradient>
  </defs>
  <g>
    <polygon points="45 78.33 92 43.84 92 36.84 45 71.33 45 78.33" style="fill: #5c677c; stroke-width: 0px;"/>
    <polygon points="45 78.33 0 56.86 0 49.86 45 71.33 45 78.33" style="fill: #80a5b7; stroke-width: 0px;"/>
  </g>
  <g>
    <polygon points="45 98 92 63.51 92 56.51 45 91 45 98" style="fill: #5c677c; stroke-width: 0px;"/>
    <polygon points="45 98 0 76.53 0 69.53 45 91 45 98" style="fill: #80a5b7; stroke-width: 0px;"/>
  </g>
  <g>
    <polygon points="45 117.66 92 83.18 92 76.18 45 110.66 45 117.66" style="fill: #5c677c; stroke-width: 0px;"/>
    <polygon points="45 117.66 0 96.2 0 89.2 45 110.66 45 117.66" style="fill: #80a5b7; stroke-width: 0px;"/>
  </g>
  <g>
    <polygon points="45 139.33 92 104.84 92 97.84 45 132.33 45 139.33" style="fill: #5c677c; stroke-width: 0px;"/>
    <polygon points="45 139.33 0 117.86 0 110.86 45 132.33 45 139.33" style="fill: #80a5b7; stroke-width: 0px;"/>
  </g>
  <polygon points="78 97.81 63 108.75 63 126.12 78 115.06 78 97.81" style="fill: #4b5566; stroke-width: 0px;"/>
  <polygon points="45 56.33 0 34.86 47.26 0 92 21.84 45 56.33" style="fill: url(#linear-gradient); stroke-width: 0px;"/>
  <polygon points="45 58.25 0 36.84 0 34.84 45 56.25 45 58.25" style="fill: #80a5b7; stroke-width: 0px;"/>
  <polygon points="45 58.25 92 23.87 92 21.87 45 56.25 45 58.25" style="fill: #4b5566; stroke-width: 0px;"/>
  <g>
    <path d="m135.6,58.08c-1.84,0-3.57-.25-5.18-.75s-3-1.27-4.18-2.3c-1.18-1.03-2.11-2.34-2.8-3.94-.69-1.59-1.03-3.49-1.03-5.7v-21.89h3.49v21.56c0,1.77.25,3.29.76,4.56.51,1.27,1.21,2.32,2.1,3.13s1.93,1.42,3.12,1.82c1.19.4,2.46.6,3.82.6s2.61-.21,3.84-.62c1.23-.41,2.33-1.04,3.29-1.89.96-.84,1.73-1.92,2.32-3.23.59-1.31.88-2.87.88-4.66v-21.26h3.47v21.4c0,2.25-.36,4.2-1.09,5.85-.73,1.65-1.71,3.01-2.96,4.09-1.25,1.08-2.72,1.89-4.41,2.43-1.69.54-3.5.81-5.44.81Z" style="fill: #5c677c; stroke-width: 0px;"/>
    <path d="m183.68,33.59c0,1.39-.24,2.71-.71,3.97-.48,1.26-1.19,2.36-2.14,3.3s-2.15,1.7-3.6,2.27c-1.45.57-3.12.86-5.03.86h-8.93v13.59h-3.47V23.51h12.09c1.95,0,3.66.24,5.13.73,1.47.48,2.7,1.16,3.69,2.04s1.73,1.93,2.23,3.18.74,2.62.74,4.14Zm-3.54.02c0-2.31-.72-4.11-2.17-5.39-1.45-1.28-3.61-1.92-6.48-1.92h-8.23v14.93h8.41c1.45,0,2.71-.19,3.77-.57s1.94-.92,2.64-1.61,1.21-1.49,1.55-2.41.5-1.93.5-3.02Z" style="fill: #5c677c; stroke-width: 0px;"/>
    <path d="m213.1,57.59l-9.28-14.6h-8.16v14.6h-3.47V23.51h12.09c1.84,0,3.5.22,4.96.66,1.46.44,2.7,1.06,3.7,1.88,1.01.81,1.78,1.81,2.32,2.99.54,1.18.81,2.53.81,4.04,0,1.06-.17,2.11-.5,3.15-.34,1.04-.86,1.99-1.56,2.86-.7.87-1.61,1.6-2.72,2.2-1.11.6-2.44,1.02-3.98,1.25l9.91,15.05h-4.12Zm-.56-24.49c0-1.11-.2-2.09-.59-2.93-.39-.84-.96-1.55-1.71-2.13-.75-.58-1.65-1.01-2.7-1.3-1.05-.29-2.23-.43-3.56-.43h-8.32v13.95h8.48c1.45,0,2.71-.19,3.77-.56,1.06-.38,1.93-.88,2.6-1.51.67-.63,1.18-1.39,1.51-2.27s.5-1.82.5-2.8Z" style="fill: #5c677c; stroke-width: 0px;"/>
    <path d="m247.44,57.59l-4.03-10.55h-15.26l-3.98,10.55h-3.63l13.24-34.08h4.1l13.22,34.08h-3.66Zm-9.52-25.34c-.27-.69-.52-1.38-.77-2.07s-.47-1.32-.67-1.88-.35-1.01-.46-1.37c-.12-.36-.2-.56-.23-.61-.02.08-.08.3-.2.68s-.27.84-.47,1.39c-.2.55-.41,1.17-.66,1.84-.24.67-.5,1.34-.76,2.02l-4.55,11.98h13.31l-4.55-11.98Z" style="fill: #5c677c; stroke-width: 0px;"/>
    <path d="m269.21,57.59h-3.75l-12.8-34.08h3.75l8.77,24.52c.27.73.52,1.49.77,2.26.25.77.48,1.48.68,2.12.22.75.44,1.49.66,2.23.22-.69.45-1.41.7-2.16.22-.64.45-1.35.7-2.13.25-.78.52-1.55.8-2.32l8.7-24.52h3.75l-12.73,34.08Z" style="fill: #5c677c; stroke-width: 0px;"/>
    <path d="m313.42,57.59l-22.24-29.93c.03.69.06,1.39.09,2.11.02.62.03,1.3.04,2.02,0,.72.01,1.4.01,2.04v23.77h-3.16V23.51h3.96l22.43,30.12c-.02-.67-.05-1.37-.09-2.09-.05-.62-.07-1.33-.08-2.12,0-.79-.01-1.59-.01-2.4v-23.51h3.19v34.08h-4.12Z" style="fill: #5c677c; stroke-width: 0px;"/>
    <path d="m328.03,57.59V23.51h3.47v34.08h-3.47Z" style="fill: #5c677c; stroke-width: 0px;"/>
    <path d="m363.47,57.59l-14.37-17.6-3.66,3.75v13.85h-3.47V23.51h3.47v16.29l15.98-16.29h4.15l-14.23,14.27,16.31,19.8h-4.2Z" style="fill: #5c677c; stroke-width: 0px;"/>
  </g>
  <polygon points="144.81 72.84 122 102.29 122 104.84 148 104.84 148 102.84 125.06 102.84 147 73.29 147 70.84 124 70.84 124 72.84 144.81 72.84" style="fill: #5c677c; stroke-width: 0px;"/>
  <path d="m191.89,101.43c.83-.63,1.11-1.3,2.11-1.99v-10.6h-12v2h10v7.65l-.16.14c-.44.51-1.03,1.02-1.71,1.53-.68.5-1.49.97-2.4,1.38-.9.41-1.92.75-3.03,1-1.11.26-2.35.39-3.68.39-2.08,0-3.94-.38-5.53-1.14-1.59-.76-2.93-1.84-3.98-3.21-1.04-1.36-1.84-2.99-2.36-4.84-.52-1.84-.78-3.89-.78-6.1s.24-4.25.71-6.07c.48-1.85,1.23-3.44,2.23-4.75,1.01-1.32,2.32-2.35,3.89-3.07,1.56-.71,3.43-1.08,5.58-1.08,1.43,0,2.72.16,3.83.49,1.12.33,2.11.78,2.95,1.34.84.56,1.57,1.22,2.17,1.96.5.61.93,1.26,1.3,1.93l2.21-.77c-.42-.76-.91-1.52-1.48-2.25-.67-.88-1.53-1.66-2.53-2.34-1.01-.68-2.22-1.24-3.59-1.66-1.37-.42-3.01-.63-4.86-.63-2.53,0-4.75.4-6.6,1.19-1.84.79-3.4,1.91-4.63,3.35-1.24,1.44-2.17,3.22-2.78,5.29-.62,2.09-.93,4.47-.93,7.07s.31,4.84.93,6.95c.61,2.09,1.55,3.91,2.8,5.42,1.24,1.5,2.83,2.7,4.72,3.54,1.9.85,4.16,1.28,6.73,1.28,1.53,0,2.98-.15,4.31-.45,1.33-.3,2.51-.7,3.62-1.2,1.1-.5,2.06-1.09,2.94-1.76Z" style="fill: #5c677c; stroke-width: 0px;"/>
  <path d="m232.66,104.84h2.92l-9.83-15.17.77-.24c1.48-.22,2.77-.69,3.82-1.26,1.05-.57,1.91-1.3,2.57-2.11.66-.82,1.16-1.74,1.47-2.71.32-.98.48-2,.48-3.01,0-1.44-.26-2.73-.76-3.84-.5-1.1-1.24-2.05-2.18-2.81-.95-.77-2.14-1.58-3.53-2-1.41-.42-3.03-.85-4.81-.85h-11.58v34h2v-15h9.38l9.28,15Zm-18.66-32h9.27c1.37,0,2.61.26,3.7.56,1.11.31,2.07.83,2.87,1.44.81.62,1.44,1.43,1.86,2.34.42.91.63,1.98.63,3.15,0,1.04-.18,2.05-.54,2.99-.36.95-.91,1.78-1.64,2.46-.72.68-1.65,1.15-2.78,1.54-1.11.39-2.44.51-3.94.51h-9.43v-15Z" style="fill: #5c677c; stroke-width: 0px;"/>
  <path d="m275.92,93.84l4.03,11h2.58l-12.83-34h-3.42l-12.85,34h2.56l3.98-11h15.95Zm-7.94-21.67l7.38,19.67h-14.76l7.38-19.67Z" style="fill: #5c677c; stroke-width: 0px;"/>
  <path d="m326.59,94.76c.82-2.09,1.23-4.55,1.23-7.32s-.43-5.29-1.29-7.32c-.85-2.02-2.06-3.7-3.59-5-1.54-1.31-3.4-2.5-5.54-3.12-2.16-.63-4.56-1.16-7.14-1.16h-10.28v34h11.8c2.26,0,4.39-.61,6.33-1.33,1.93-.71,3.64-1.92,5.07-3.34,1.44-1.42,2.58-3.32,3.39-5.4Zm-9.73,6.9c-1.7.64-3.57,1.17-5.58,1.17h-9.28v-30h8.16c2.19,0,4.23.44,6.07.96,1.86.53,3.48,1.46,4.82,2.62,1.34,1.16,2.4,2.7,3.14,4.51.73,1.79,1.1,4,1.1,6.5s-.35,4.6-1.04,6.46c-.69,1.86-1.68,3.56-2.93,4.81-1.25,1.26-2.75,2.33-4.46,2.97Z" style="fill: #5c677c; stroke-width: 0px;"/>
  <polygon points="365.67 87.84 365.67 86.84 347.67 86.84 347.67 72.84 366.67 72.84 366.67 70.84 345.67 70.84 345.67 104.84 367.67 104.84 367.67 102.84 347.67 102.84 347.67 87.84 365.67 87.84" style="fill: #5c677c; stroke-width: 0px;"/>
  <rect x="122" y="63.46" width="245.67" height="2" style="fill: #5c677c; stroke-width: 0px;"/>
</svg>