<svg viewBox="0 0 80 80" xmlns="http://www.w3.org/2000/svg" x="0px" y="0px"
	 xml:space="preserve">
<style type="text/css">
	.st0{fill:#5C677C;}
	.st1{fill:#80A5B7;}
	.st2{fill:#4B5566;}
	.st3{fill:url(#SVGID_1_);}
</style>
<g>
	<polygon class="st0" points="39.9,45.1 65.9,26.1 65.9,22.2 39.9,41.2 	"/>
	<polygon class="st1" points="39.9,45.1 15.1,33.2 15.1,29.4 39.9,41.2 	"/>
</g>
<g>
	<polygon class="st0" points="39.9,55.9 65.9,36.9 65.9,33.1 39.9,52.1 	"/>
	<polygon class="st1" points="39.9,55.9 15.1,44.1 15.1,40.2 39.9,52.1 	"/>
</g>
<g>
	<polygon class="st0" points="39.9,66.8 65.9,47.8 65.9,43.9 39.9,62.9 	"/>
	<polygon class="st1" points="39.9,66.8 15.1,55 15.1,51.1 39.9,62.9 	"/>
</g>
<g>
	<polygon class="st0" points="39.9,78.8 65.9,59.7 65.9,55.9 39.9,74.9 	"/>
	<polygon class="st1" points="39.9,78.8 15.1,66.9 15.1,63 39.9,74.9 	"/>
</g>
<polygon class="st2" points="58.2,55.8 49.9,61.9 49.9,71.5 58.2,65.4 "/>
<linearGradient id="SVGID_1_" gradientUnits="userSpaceOnUse" x1="29.0036" y1="9.6501" x2="49.9714" y2="23.9965">
	<stop  offset="0" style="stop-color:#80A5B7"/>
	<stop  offset="1" style="stop-color:#5C677C"/>
</linearGradient>
<polygon class="st3" points="39.9,33 15.1,21.1 41.2,1.9 65.9,13.9 "/>
<polygon class="st1" points="39.9,34 15.1,22.2 15.1,21.1 39.9,32.9 "/>
<polygon class="st2" points="39.9,34 65.9,15 65.9,13.9 39.9,32.9 "/>
</svg>